<svg xmlns="http://www.w3.org/2000/svg" xmlns:xlink="http://www.w3.org/1999/xlink" width="500" zoomAndPan="magnify" viewBox="0 0 375 374.999991" height="500" preserveAspectRatio="xMidYMid meet" version="1.0"><defs><clipPath id="83c15680fa"><path d="M 67 106 L 352.984375 106 L 352.984375 368 L 67 368 Z M 67 106 " clip-rule="nonzero"/></clipPath><clipPath id="c8fbc10590"><path d="M 22.234375 7 L 308 7 L 308 269 L 22.234375 269 Z M 22.234375 7 " clip-rule="nonzero"/></clipPath></defs><g clip-path="url(#83c15680fa)"><path fill="#f36198" d="M 189.871094 296.1875 C 200.867188 296.1875 200.867188 312.890625 189.871094 312.890625 L 95.757812 312.890625 C 87.953125 312.890625 80.828125 309.679688 75.65625 304.511719 L 75.640625 304.527344 C 70.480469 299.367188 67.277344 292.246094 67.277344 284.40625 L 67.277344 135.414062 C 67.277344 119.734375 80.078125 106.933594 95.757812 106.933594 L 324.167969 106.933594 C 339.847656 106.933594 352.648438 119.734375 352.648438 135.414062 L 352.648438 284.414062 C 352.648438 300.054688 339.804688 312.894531 324.167969 312.894531 L 284.59375 312.894531 L 284.59375 358.742188 C 284.59375 366.195312 275.554688 369.863281 270.34375 364.648438 L 134.214844 228.511719 C 123.855469 218.148438 118.671875 204.503906 118.671875 190.859375 L 118.703125 190.859375 C 118.703125 161.34375 142.34375 137.691406 171.863281 137.699219 L 171.863281 137.671875 C 185.980469 137.671875 199.292969 142.988281 209.960938 153.65625 C 244.152344 119.464844 301.246094 143.753906 301.246094 190.867188 C 301.246094 216.910156 285.636719 228.585938 268.855469 245.367188 L 232.75 281.480469 C 224.976562 289.253906 213.164062 277.445312 220.941406 269.675781 L 273.898438 216.710938 C 296.570312 194.039062 280.875 154.378906 248.058594 154.378906 C 230.09375 154.378906 221.816406 165.429688 209.960938 177.285156 C 198.203125 165.53125 189.894531 154.378906 171.863281 154.378906 L 171.863281 154.351562 C 151.648438 154.351562 135.339844 170.667969 135.339844 190.875 L 135.367188 190.875 C 135.367188 200.242188 138.914062 209.613281 146.015625 216.710938 L 163.855469 234.554688 L 163.601562 234.554688 L 163.601562 234.742188 C 166.351562 236.285156 257.40625 328.101562 267.882812 338.589844 L 267.882812 304.539062 C 267.882812 299.929688 271.621094 296.191406 276.234375 296.191406 L 324.152344 296.191406 C 330.660156 296.191406 335.929688 290.917969 335.929688 284.414062 L 335.929688 135.414062 C 335.929688 128.949219 330.609375 123.636719 324.152344 123.636719 L 95.757812 123.636719 C 89.292969 123.636719 83.980469 128.957031 83.980469 135.414062 L 83.980469 284.414062 C 83.980469 287.640625 85.308594 290.589844 87.449219 292.726562 L 87.433594 292.742188 C 89.5625 294.871094 92.496094 296.191406 95.757812 296.191406 L 189.871094 296.191406 Z M 189.871094 296.1875 " fill-opacity="1" fill-rule="nonzero"/></g><g clip-path="url(#c8fbc10590)"><path fill="#9138ab" d="M 267.804688 210.605469 C 263.535156 214.875 257.046875 208.386719 261.316406 204.117188 C 272.964844 192.472656 264.863281 172.164062 248.058594 172.164062 C 242.015625 172.164062 242.015625 162.992188 248.058594 162.992188 C 272.914062 162.992188 285.257812 193.148438 267.804688 210.605469 Z M 152.910156 78.8125 C 150.320312 78.8125 148 77.628906 146.476562 75.777344 L 107.121094 36.421875 L 107.121094 70.464844 C 107.121094 75.074219 103.386719 78.8125 98.773438 78.8125 L 50.847656 78.8125 C 47.613281 78.8125 44.671875 80.140625 42.535156 82.277344 L 42.496094 82.277344 C 40.382812 84.394531 39.0625 87.339844 39.0625 90.589844 L 39.0625 239.582031 C 39.0625 242.8125 40.390625 245.753906 42.527344 247.894531 L 42.511719 247.90625 C 46.476562 251.855469 50.445312 251.359375 55.449219 251.359375 C 66.445312 251.359375 66.445312 268.0625 55.449219 268.0625 C 34.652344 268.0625 32.078125 259.699219 30.71875 259.699219 C 25.570312 254.554688 22.363281 247.433594 22.363281 239.589844 L 22.363281 90.597656 C 22.363281 82.789062 25.574219 75.667969 30.742188 70.492188 L 30.726562 70.476562 C 35.886719 65.320312 43.007812 62.117188 50.851562 62.117188 L 90.417969 62.117188 L 90.417969 16.261719 C 90.417969 8.808594 99.460938 5.140625 104.675781 10.355469 L 156.429688 62.109375 L 279.261719 62.109375 C 292.046875 62.109375 299.183594 70.46875 299.378906 70.46875 C 307.054688 78.148438 307.742188 85.453125 307.742188 95.222656 C 307.742188 106.21875 291.039062 106.21875 291.039062 95.222656 C 291.039062 90.210938 291.542969 86.253906 287.570312 82.285156 L 287.585938 82.269531 C 285.449219 80.140625 282.5 78.820312 279.261719 78.820312 L 152.910156 78.820312 Z M 152.910156 78.8125 " fill-opacity="1" fill-rule="nonzero"/></g></svg>