<?xml version="1.0" encoding="UTF-8"?>
<svg width="900" height="200" viewBox="0 0 900 200" fill="none" xmlns="http://www.w3.org/2000/svg">
  <!-- Gradient Definitions -->
  <defs>
    <linearGradient id="text-gradient" x1="0%" y1="0%" x2="100%" y2="0%">
      <stop offset="0%" style="stop-color:#EC4899"/>
      <stop offset="50%" style="stop-color:#D946EF"/>
      <stop offset="100%" style="stop-color:#9333EA"/>
    </linearGradient>
    
    <!-- Soft glow effect -->
    <filter id="glow" x="-10%" y="-10%" width="120%" height="120%">
      <feGaussianBlur in="SourceGraphic" stdDeviation="4" result="blur"/>
      <feColorMatrix in="blur" type="matrix" values="1 0 0 0 0  0 1 0 0 0  0 0 1 0 0  0 0 0 18 -7"/>
      <feComposite in="SourceGraphic" operator="over"/>
    </filter>

    <!-- Heart gradient -->
    <linearGradient id="heart-gradient" x1="0%" y1="0%" x2="100%" y2="100%">
      <stop offset="0%" style="stop-color:#EC4899"/>
      <stop offset="100%" style="stop-color:#9333EA"/>
    </linearGradient>
  </defs>

  <!-- Heart Icon -->
  <g transform="translate(50, 40) scale(0.12)" filter="url(#glow)">
    <path d="M512 928c-12 0-24-4-34-12-7.27-5.45-180.15-136.4-303.85-285.85C71.25 501.2 32 389.4 32 290.95 32 155.2 141.2 46 276.95 46c74.55 0 144.85 33.45 193.05 91.75l41.95 50.35 41.95-50.35C602.2 79.45 672.5 46 747.05 46 882.8 46 992 155.2 992 290.95c0 98.45-39.25 210.25-142.15 339.2C726.15 779.6 553.27 910.55 546 916c-10 8-22 12-34 12z"
          fill="url(#heart-gradient)"/>
  </g>

  <!-- Main Logo Text -->
  <g filter="url(#glow)" transform="translate(80, 0)">
    <text x="50%" y="50%" text-anchor="middle" dominant-baseline="middle" 
          font-family="Inter, system-ui, sans-serif" font-weight="700" font-size="120px" 
          fill="url(#text-gradient)" class="select-none">
      girlfriend.cx
    </text>
  </g>

  <!-- Optional: Add a subtle dot pattern or texture -->
  <g opacity="0.1">
    <pattern id="dots" x="0" y="0" width="20" height="20" patternUnits="userSpaceOnUse">
      <circle cx="2" cy="2" r="1" fill="url(#text-gradient)"/>
    </pattern>
    <rect width="100%" height="100%" fill="url(#dots)"/>
  </g>
</svg> 