<svg xmlns="http://www.w3.org/2000/svg" xmlns:xlink="http://www.w3.org/1999/xlink" width="100" zoomAndPan="magnify" viewBox="0 0 75 74.999997" height="100" preserveAspectRatio="xMidYMid meet" version="1.0"><defs><clipPath id="c7ca04a572"><path d="M 13 21 L 70.734375 21 L 70.734375 74 L 13 74 Z M 13 21 " clip-rule="nonzero"/></clipPath><clipPath id="2a00770074"><path d="M 13 21 L 70.734375 21 L 70.734375 75 L 13 75 Z M 13 21 " clip-rule="nonzero"/></clipPath><clipPath id="a7697e39f4"><path d="M 4 1.039062 L 62 1.039062 L 62 55 L 4 55 Z M 4 1.039062 " clip-rule="nonzero"/></clipPath></defs><g clip-path="url(#c7ca04a572)"><path fill="#f36198" d="M 37.976562 59.539062 C 40.207031 59.539062 40.207031 62.925781 37.976562 62.925781 L 18.894531 62.925781 C 17.308594 62.925781 15.867188 62.273438 14.816406 61.226562 L 14.8125 61.230469 C 13.765625 60.183594 13.117188 58.738281 13.117188 57.148438 L 13.117188 26.9375 C 13.117188 23.757812 15.714844 21.160156 18.894531 21.160156 L 65.210938 21.160156 C 68.390625 21.160156 70.984375 23.757812 70.984375 26.9375 L 70.984375 57.152344 C 70.984375 60.324219 68.382812 62.925781 65.210938 62.925781 L 57.183594 62.925781 L 57.183594 72.222656 C 57.183594 73.734375 55.351562 74.480469 54.296875 73.421875 L 26.691406 45.816406 C 24.589844 43.714844 23.539062 40.945312 23.539062 38.179688 L 23.546875 38.179688 C 23.546875 32.195312 28.339844 27.398438 34.324219 27.398438 L 34.324219 27.394531 C 37.1875 27.394531 39.886719 28.472656 42.050781 30.636719 C 48.984375 23.703125 60.5625 28.628906 60.5625 38.179688 C 60.5625 43.460938 57.398438 45.832031 53.992188 49.234375 L 46.671875 56.558594 C 45.097656 58.132812 42.699219 55.738281 44.277344 54.164062 L 55.015625 43.421875 C 59.613281 38.824219 56.429688 30.78125 49.777344 30.78125 C 46.132812 30.78125 44.457031 33.023438 42.050781 35.429688 C 39.667969 33.042969 37.980469 30.78125 34.324219 30.78125 L 34.324219 30.777344 C 30.226562 30.777344 26.917969 34.085938 26.917969 38.183594 L 26.925781 38.183594 C 26.925781 40.082031 27.644531 41.984375 29.082031 43.421875 L 32.703125 47.039062 L 32.648438 47.039062 L 32.648438 47.078125 C 33.207031 47.390625 51.671875 66.011719 53.796875 68.136719 L 53.796875 61.234375 C 53.796875 60.296875 54.554688 59.539062 55.488281 59.539062 L 65.207031 59.539062 C 66.527344 59.539062 67.59375 58.46875 67.59375 57.152344 L 67.59375 26.9375 C 67.59375 25.625 66.515625 24.546875 65.207031 24.546875 L 18.894531 24.546875 C 17.582031 24.546875 16.503906 25.628906 16.503906 26.9375 L 16.503906 57.152344 C 16.503906 57.804688 16.773438 58.402344 17.207031 58.835938 L 17.203125 58.839844 C 17.636719 59.273438 18.230469 59.539062 18.894531 59.539062 Z M 37.976562 59.539062 " fill-opacity="1" fill-rule="nonzero"/></g><path fill="#9138ab" d="M 53.78125 42.183594 C 52.914062 43.050781 51.597656 41.734375 52.464844 40.867188 C 54.828125 38.507812 53.183594 34.390625 49.777344 34.390625 C 48.550781 34.390625 48.550781 32.527344 49.777344 32.527344 C 54.816406 32.527344 57.320312 38.644531 53.78125 42.183594 Z M 30.480469 15.457031 C 29.957031 15.457031 29.484375 15.21875 29.175781 14.84375 L 21.195312 6.863281 L 21.195312 13.765625 C 21.195312 14.699219 20.4375 15.457031 19.503906 15.457031 L 9.785156 15.457031 C 9.128906 15.457031 8.535156 15.726562 8.101562 16.160156 L 8.09375 16.160156 C 7.664062 16.589844 7.394531 17.1875 7.394531 17.847656 L 7.394531 48.058594 C 7.394531 48.714844 7.664062 49.3125 8.097656 49.746094 L 8.09375 49.75 C 8.898438 50.550781 9.703125 50.449219 10.71875 50.449219 C 12.949219 50.449219 12.949219 53.835938 10.71875 53.835938 C 6.5 53.835938 5.980469 52.140625 5.703125 52.140625 C 4.660156 51.097656 4.007812 49.652344 4.007812 48.0625 L 4.007812 17.847656 C 4.007812 16.265625 4.660156 14.820312 5.707031 13.773438 L 5.707031 13.769531 C 6.75 12.722656 8.195312 12.074219 9.785156 12.074219 L 17.808594 12.074219 L 17.808594 2.773438 C 17.808594 1.265625 19.644531 0.519531 20.699219 1.578125 L 31.195312 12.070312 L 56.105469 12.070312 C 58.695312 12.070312 60.144531 13.765625 60.183594 13.765625 C 61.738281 15.324219 61.878906 16.804688 61.878906 18.785156 C 61.878906 21.015625 58.492188 21.015625 58.492188 18.785156 C 58.492188 17.769531 58.59375 16.96875 57.789062 16.164062 L 57.792969 16.160156 C 57.359375 15.726562 56.761719 15.460938 56.105469 15.460938 L 30.480469 15.460938 Z M 30.480469 15.457031 " fill-opacity="1" fill-rule="nonzero"/><g clip-path="url(#2a00770074)"><path fill="#f36198" d="M 37.976562 60.058594 C 40.207031 60.058594 40.207031 63.445312 37.976562 63.445312 L 18.894531 63.445312 C 17.308594 63.445312 15.867188 62.792969 14.816406 61.746094 L 14.8125 61.75 C 13.765625 60.703125 13.117188 59.257812 13.117188 57.667969 L 13.117188 27.457031 C 13.117188 24.277344 15.714844 21.679688 18.894531 21.679688 L 65.210938 21.679688 C 68.390625 21.679688 70.984375 24.277344 70.984375 27.457031 L 70.984375 57.671875 C 70.984375 60.84375 68.382812 63.445312 65.210938 63.445312 L 57.183594 63.445312 L 57.183594 72.742188 C 57.183594 74.253906 55.351562 75 54.296875 73.941406 L 26.691406 46.335938 C 24.589844 44.234375 23.539062 41.464844 23.539062 38.699219 L 23.546875 38.699219 C 23.546875 32.714844 28.339844 27.917969 34.324219 27.917969 L 34.324219 27.914062 C 37.1875 27.914062 39.886719 28.992188 42.050781 31.15625 C 48.984375 24.222656 60.5625 29.148438 60.5625 38.699219 C 60.5625 43.980469 57.398438 46.351562 53.992188 49.753906 L 46.671875 57.078125 C 45.097656 58.652344 42.699219 56.257812 44.277344 54.683594 L 55.015625 43.941406 C 59.613281 39.34375 56.429688 31.300781 49.777344 31.300781 C 46.132812 31.300781 44.457031 33.542969 42.050781 35.945312 C 39.667969 33.5625 37.980469 31.300781 34.324219 31.300781 L 34.324219 31.296875 C 30.226562 31.296875 26.917969 34.605469 26.917969 38.703125 L 26.925781 38.703125 C 26.925781 40.601562 27.644531 42.503906 29.082031 43.941406 L 32.703125 47.558594 L 32.648438 47.558594 L 32.648438 47.597656 C 33.207031 47.910156 51.671875 66.53125 53.796875 68.65625 L 53.796875 61.753906 C 53.796875 60.816406 54.554688 60.058594 55.488281 60.058594 L 65.207031 60.058594 C 66.527344 60.058594 67.59375 58.988281 67.59375 57.671875 L 67.59375 27.457031 C 67.59375 26.144531 66.515625 25.066406 65.207031 25.066406 L 18.894531 25.066406 C 17.582031 25.066406 16.503906 26.148438 16.503906 27.457031 L 16.503906 57.671875 C 16.503906 58.324219 16.773438 58.921875 17.207031 59.355469 L 17.203125 59.359375 C 17.636719 59.792969 18.230469 60.058594 18.894531 60.058594 Z M 37.976562 60.058594 " fill-opacity="1" fill-rule="nonzero"/></g><g clip-path="url(#a7697e39f4)"><path fill="#9138ab" d="M 53.78125 42.703125 C 52.914062 43.570312 51.597656 42.253906 52.464844 41.386719 C 54.828125 39.027344 53.183594 34.910156 49.777344 34.910156 C 48.550781 34.910156 48.550781 33.046875 49.777344 33.046875 C 54.816406 33.046875 57.320312 39.164062 53.78125 42.703125 Z M 30.480469 15.976562 C 29.957031 15.976562 29.484375 15.738281 29.175781 15.363281 L 21.195312 7.382812 L 21.195312 14.285156 C 21.195312 15.21875 20.4375 15.976562 19.503906 15.976562 L 9.785156 15.976562 C 9.128906 15.976562 8.535156 16.246094 8.101562 16.679688 L 8.09375 16.679688 C 7.664062 17.109375 7.394531 17.707031 7.394531 18.367188 L 7.394531 48.578125 C 7.394531 49.234375 7.664062 49.832031 8.097656 50.265625 L 8.09375 50.269531 C 8.898438 51.070312 9.703125 50.96875 10.71875 50.96875 C 12.949219 50.96875 12.949219 54.355469 10.71875 54.355469 C 6.5 54.355469 5.980469 52.660156 5.703125 52.660156 C 4.660156 51.617188 4.007812 50.171875 4.007812 48.582031 L 4.007812 18.367188 C 4.007812 16.785156 4.660156 15.339844 5.707031 14.292969 L 5.707031 14.289062 C 6.75 13.242188 8.195312 12.59375 9.785156 12.59375 L 17.808594 12.59375 L 17.808594 3.292969 C 17.808594 1.78125 19.644531 1.039062 20.699219 2.097656 L 31.195312 12.589844 L 56.105469 12.589844 C 58.695312 12.589844 60.144531 14.285156 60.183594 14.285156 C 61.738281 15.84375 61.878906 17.324219 61.878906 19.304688 C 61.878906 21.535156 58.492188 21.535156 58.492188 19.304688 C 58.492188 18.289062 58.59375 17.488281 57.789062 16.683594 L 57.792969 16.679688 C 57.359375 16.246094 56.761719 15.980469 56.105469 15.980469 L 30.480469 15.980469 Z M 30.480469 15.976562 " fill-opacity="1" fill-rule="nonzero"/></g></svg>